<svg width="32" height="32" viewBox="0 0 32 32" fill="none" xmlns="http://www.w3.org/2000/svg">
<path d="M17.3684 2.67285C19.7684 2.67285 20.2754 2.69985 21.5014 2.75285C22.9144 2.81985 23.8884 3.04585 24.7284 3.37985C25.6084 3.71285 26.3554 4.17985 27.0884 4.91285C27.8354 5.64585 28.2884 6.39285 28.6354 7.27285C28.9684 8.11285 29.1824 9.08585 29.2484 10.5129C29.3154 11.7799 29.3284 12.2729 29.3284 14.9399V17.0729C29.3284 19.7399 29.3154 20.2329 29.2484 21.4999C29.2254 22.6649 29.0024 23.7699 28.6124 24.7939L28.6344 24.7269C28.2874 25.6069 27.8344 26.3539 27.1014 27.0869C26.3544 27.8339 25.6084 28.2869 24.7284 28.6339C23.8884 28.9669 22.9154 29.1809 21.5014 29.2469C20.2344 29.3139 19.7284 29.3269 17.0614 29.3269H14.9414C12.2744 29.3269 11.7814 29.3139 10.5014 29.2469C9.33639 29.2239 8.23139 29.0009 7.20739 28.6109L7.27439 28.6329C6.35139 28.2799 5.56439 27.7589 4.91539 27.0999L4.91439 27.0989C4.24839 26.4469 3.72239 25.6549 3.38239 24.7699L3.36739 24.7249C3.00039 23.7689 2.77739 22.6629 2.75439 21.5079V21.4979C2.70139 20.4559 2.67139 19.2349 2.67139 18.0079C2.67139 17.7819 2.67239 17.5559 2.67439 17.3309V17.3649V14.6319C2.67439 12.2319 2.70139 11.7249 2.75439 10.4989C2.82139 9.08585 3.04739 8.11185 3.36739 7.27185C3.71439 6.39185 4.16739 5.64485 4.91439 4.91185C5.55939 4.24485 6.34839 3.72185 7.23139 3.39285L7.27439 3.37885C8.22939 3.00785 9.33439 2.77985 10.4894 2.75285H10.5014C11.7284 2.69985 12.2344 2.67285 14.6344 2.67285H17.3684ZM17.3954 5.07285H14.6084C12.3014 5.07285 11.8084 5.09985 10.6084 5.15285C9.31539 5.20585 8.60839 5.41985 8.14139 5.60585C7.51439 5.84585 7.07439 6.13885 6.60839 6.60585C6.14239 7.07285 5.84839 7.51285 5.60839 8.13885C5.43539 8.60585 5.20839 9.31185 5.15539 10.6189C5.10239 11.8189 5.07539 12.2989 5.07539 14.6189V17.3919C5.07539 19.7119 5.10239 20.1919 5.15539 21.3919C5.20839 22.6849 5.42239 23.3919 5.60839 23.8589C5.84839 24.4859 6.14139 24.9259 6.60839 25.3919C7.07539 25.8579 7.51539 26.1519 8.14139 26.3919C8.60839 26.5789 9.31439 26.7919 10.6214 26.8449C11.9144 26.9119 12.3814 26.9249 15.2614 26.9249H16.7414C19.6344 26.9249 20.0884 26.9119 21.3944 26.8449C22.6874 26.7919 23.3944 26.5779 23.8614 26.3919C24.4884 26.1519 24.9284 25.8589 25.3944 25.3919C25.8604 24.9249 26.1544 24.4849 26.3944 23.8589C26.5814 23.3919 26.7944 22.6859 26.8474 21.3919C26.9144 20.0849 26.9274 19.6319 26.9274 16.7389V15.2719C26.9274 12.3789 26.9144 11.9119 26.8474 10.6049C26.7944 9.31185 26.5804 8.60485 26.3944 8.13785C26.1684 7.53685 25.8274 7.02385 25.3954 6.60585L25.3944 6.60485C24.9744 6.17185 24.4624 5.83085 23.8894 5.61385L23.8614 5.60485C23.1294 5.32885 22.2834 5.16385 21.3994 5.15185H21.3944C20.3664 5.09985 19.1634 5.06985 17.9524 5.06985C17.7564 5.06985 17.5604 5.07085 17.3644 5.07185H17.3944L17.3954 5.07285ZM16.0084 9.15285C19.7894 9.15285 22.8554 12.2179 22.8554 15.9999C22.8554 19.7819 19.7904 22.8469 16.0084 22.8469C12.2274 22.8469 9.16139 19.7819 9.16139 15.9999C9.16139 12.2179 12.2264 9.15285 16.0084 9.15285V9.15285ZM16.0084 11.5529C13.5524 11.5529 11.5614 13.5439 11.5614 15.9999C11.5614 18.4559 13.5524 20.4469 16.0084 20.4469C18.4644 20.4469 20.4554 18.4559 20.4554 15.9999C20.4554 13.5439 18.4644 11.5529 16.0084 11.5529ZM23.1154 7.28585C23.9994 7.28585 24.7154 8.00185 24.7154 8.88585C24.7154 9.76985 23.9994 10.4859 23.1154 10.4859C22.2314 10.4859 21.5154 9.76985 21.5154 8.88585C21.5154 8.00185 22.2314 7.28585 23.1154 7.28585V7.28585Z" fill="white"/>
</svg>
